<svg width="20" height="20" viewBox="0 0 20 20" fill="none" xmlns="http://www.w3.org/2000/svg">
<path d="M19.853 10.267C19.853 15.6185 15.478 19.9545 10.1655 19.9545C4.81393 19.9545 0.477997 15.6185 0.477997 10.267C0.477997 4.95447 4.81393 0.579468 10.1655 0.579468C15.478 0.579468 19.853 4.95447 19.853 10.267ZM9.03268 15.4232L16.2202 8.23572C16.4546 8.00134 16.4546 7.57166 16.2202 7.33728L15.3217 6.47791C15.0874 6.20447 14.6967 6.20447 14.4624 6.47791L8.603 12.3373L5.82956 9.60291C5.59518 9.32947 5.20456 9.32947 4.97018 9.60291L4.07175 10.4623C3.83737 10.6967 3.83737 11.1263 4.07175 11.3607L8.13425 15.4232C8.36862 15.6576 8.79831 15.6576 9.03268 15.4232Z" fill="#208C35"/>
</svg>
