<svg width="34" height="32" viewBox="0 0 34 32" fill="none" xmlns="http://www.w3.org/2000/svg">
<path d="M17.5148 20.52L12.1798 25.6933C11.5339 26.2978 10.6712 26.6357 9.77354 26.6357C8.87586 26.6357 8.01322 26.2978 7.36729 25.6933C7.0505 25.3874 6.79913 25.0237 6.62762 24.6233C6.4561 24.2229 6.36781 23.7936 6.36781 23.36C6.36781 22.9264 6.4561 22.4971 6.62762 22.0967C6.79913 21.6963 7.0505 21.3327 7.36729 21.0267L12.7023 15.8533C12.9612 15.6023 13.1067 15.2617 13.1067 14.9067C13.1067 14.5516 12.9612 14.2111 12.7023 13.96C12.4434 13.7089 12.0922 13.5679 11.726 13.5679C11.3599 13.5679 11.0087 13.7089 10.7498 13.96L5.41479 19.1467C4.34003 20.2811 3.75877 21.7742 3.7924 23.3143C3.82602 24.8545 4.47193 26.3224 5.59524 27.4117C6.71855 28.501 8.23239 29.1273 9.82063 29.1599C11.4089 29.1925 12.9487 28.6289 14.1185 27.5867L19.4673 22.4133C19.7262 22.1623 19.8717 21.8217 19.8717 21.4667C19.8717 21.1116 19.7262 20.7711 19.4673 20.52C19.2084 20.2689 18.8572 20.1279 18.491 20.1279C18.1249 20.1279 17.7737 20.2689 17.5148 20.52ZM29.3123 4.41335C28.1556 3.29869 26.5911 2.67307 24.9604 2.67307C23.3297 2.67307 21.7652 3.29869 20.6085 4.41335L15.2598 9.58668C15.1316 9.711 15.0299 9.85859 14.9605 10.021C14.8911 10.1834 14.8554 10.3575 14.8554 10.5333C14.8554 10.7092 14.8911 10.8833 14.9605 11.0457C15.0299 11.2081 15.1316 11.3557 15.2598 11.48C15.388 11.6043 15.5402 11.7029 15.7077 11.7702C15.8752 11.8375 16.0547 11.8721 16.236 11.8721C16.4174 11.8721 16.5969 11.8375 16.7644 11.7702C16.9319 11.7029 17.0841 11.6043 17.2123 11.48L22.5473 6.30668C23.1932 5.70218 24.0559 5.36436 24.9535 5.36436C25.8512 5.36436 26.7139 5.70218 27.3598 6.30668C27.6766 6.61266 27.928 6.97629 28.0995 7.37671C28.271 7.77712 28.3593 8.20643 28.3593 8.64001C28.3593 9.0736 28.271 9.50291 28.0995 9.90332C27.928 10.3037 27.6766 10.6674 27.3598 10.9733L22.0248 16.1467C21.8959 16.2706 21.7936 16.4181 21.7238 16.5806C21.654 16.7431 21.6181 16.9173 21.6181 17.0933C21.6181 17.2694 21.654 17.4436 21.7238 17.6061C21.7936 17.7686 21.8959 17.9161 22.0248 18.04C22.1526 18.165 22.3047 18.2642 22.4723 18.3319C22.6398 18.3996 22.8195 18.4344 23.001 18.4344C23.1826 18.4344 23.3623 18.3996 23.5298 18.3319C23.6974 18.2642 23.8495 18.165 23.9773 18.04L29.3123 12.8533C30.4618 11.7317 31.107 10.2146 31.107 8.63335C31.107 7.05205 30.4618 5.53497 29.3123 4.41335ZM13.0048 20.2267C13.1333 20.3503 13.2856 20.448 13.4532 20.5144C13.6207 20.5807 13.8001 20.6144 13.981 20.6133C14.162 20.6144 14.3414 20.5807 14.5089 20.5144C14.6764 20.448 14.8288 20.3503 14.9573 20.2267L21.7223 13.6667C21.9812 13.4156 22.1267 13.0751 22.1267 12.72C22.1267 12.3649 21.9812 12.0244 21.7223 11.7733C21.4634 11.5223 21.1122 11.3812 20.746 11.3812C20.3799 11.3812 20.0287 11.5223 19.7698 11.7733L13.0048 18.3333C12.8759 18.4573 12.7736 18.6048 12.7038 18.7672C12.634 18.9297 12.5981 19.104 12.5981 19.28C12.5981 19.456 12.634 19.6303 12.7038 19.7928C12.7736 19.9553 12.8759 20.1027 13.0048 20.2267Z" fill="black"/>
</svg>
