<svg width="38" height="39" viewBox="0 0 38 39" fill="none" xmlns="http://www.w3.org/2000/svg">
  <g clip-path="url(#clip0_100_2406)">
    <path
      d="M38 19.9426C38 9.44931 29.4933 0.942627 19 0.942627C8.50668 0.942627 0 9.44931 0 19.9426C0 28.8529 6.13472 36.3297 14.4104 38.3833V25.749H10.4926V19.9426H14.4104V17.4407C14.4104 10.9739 17.3371 7.97643 23.6862 7.97643C24.89 7.97643 26.9671 8.21279 27.8168 8.44839V13.7114C27.3684 13.6643 26.5894 13.6407 25.6219 13.6407C22.5066 13.6407 21.3028 14.821 21.3028 17.8891V19.9426H27.509L26.4427 25.749H21.3028V38.8035C30.7108 37.6673 38.0008 29.6569 38.0008 19.9426H38Z"
      fill="#0866FF" />
    <path
      d="M26.4418 25.749L27.5081 19.9426H21.3019V17.8891C21.3019 14.821 22.5058 13.6407 25.621 13.6407C26.5885 13.6407 27.3675 13.6643 27.8159 13.7114V8.4484C26.9662 8.21204 24.8891 7.97644 23.6853 7.97644C17.3363 7.97644 14.4095 10.9739 14.4095 17.4407V19.9426H10.4917V25.749H14.4095V38.3833C15.8793 38.7481 17.4168 38.9426 18.9991 38.9426C19.7781 38.9426 20.5465 38.8948 21.3012 38.8036V25.749H26.4411H26.4418Z"
      fill="white" />
  </g>
  <defs>
    <clipPath id="clip0_100_2406">
      <rect y="0.942627" width="38" height="38" rx="6" fill="white" />
    </clipPath>
  </defs>
</svg>