<svg width="39" height="39" viewBox="0 0 39 39" fill="none" xmlns="http://www.w3.org/2000/svg">
  <g clip-path="url(#clip0_185_214)">
    <path
      d="M19.4814 0.905518C8.98812 0.905518 0.481445 9.4122 0.481445 19.9055C0.481445 28.8158 6.61617 36.2926 14.8918 38.3462V25.7119H10.974V19.9055H14.8918V17.4036C14.8918 10.9368 17.8186 7.93932 24.1676 7.93932C25.3714 7.93932 27.4485 8.17568 28.2982 8.41128V13.6743C27.8498 13.6272 27.0708 13.6036 26.1033 13.6036C22.9881 13.6036 21.7842 14.7839 21.7842 17.852V19.9055H27.9904L26.9241 25.7119H21.7842V38.7664C31.1923 37.6302 38.4822 29.6198 38.4822 19.9055C38.4814 9.4122 29.9748 0.905518 19.4814 0.905518Z"
      fill="white" />
  </g>
  <defs>
    <clipPath id="clip0_185_214">
      <rect x="0.481445" y="0.905518" width="38" height="38" rx="6" fill="white" />
    </clipPath>
  </defs>
</svg>