<svg width="38" height="39" viewBox="0 0 38 39" fill="none" xmlns="http://www.w3.org/2000/svg">
  <g clip-path="url(#clip0_100_2412)">
    <path
      d="M18.9995 15.804V23.1621H29.2249C28.7759 25.5285 27.4285 27.5322 25.4076 28.8795L31.5739 33.6641C35.1667 30.3478 37.2394 25.4768 37.2394 19.6905C37.2394 18.3433 37.1185 17.0477 36.8939 15.8042L18.9995 15.804Z"
      fill="#4285F4" />
    <path
      d="M8.35164 22.8749L6.96089 23.9395L2.03809 27.774C5.16444 33.9748 11.5721 38.2585 18.9994 38.2585C24.1292 38.2585 28.4301 36.5658 31.5738 33.6641L25.4075 28.8795C23.7147 30.0195 21.5556 30.7104 18.9994 30.7104C14.0594 30.7104 9.86224 27.3768 8.3594 22.8859L8.35164 22.8749Z"
      fill="#34A853" />
    <path
      d="M2.03803 10.7431C0.74265 13.2994 0 16.1839 0 19.2584C0 22.3329 0.74265 25.2175 2.03803 27.7738C2.03803 27.7909 8.35996 22.8683 8.35996 22.8683C7.97996 21.7283 7.75535 20.5193 7.75535 19.2582C7.75535 17.9972 7.97996 16.7882 8.35996 15.6482L2.03803 10.7431Z"
      fill="#FBBC05" />
    <path
      d="M18.9998 7.82399C21.798 7.82399 24.2852 8.79124 26.2716 10.6567L31.7124 5.21588C28.4133 2.14139 24.1298 0.258545 18.9998 0.258545C11.5725 0.258545 5.16444 4.5249 2.03809 10.7431L8.35982 15.6486C9.86246 11.1576 14.0598 7.82399 18.9998 7.82399Z"
      fill="#EA4335" />
  </g>
  <defs>
    <clipPath id="clip0_100_2412">
      <rect y="0.258545" width="38" height="38" rx="6" fill="white" />
    </clipPath>
  </defs>
</svg>