<svg width="38" height="39" viewBox="0 0 38 39" fill="none" xmlns="http://www.w3.org/2000/svg">
  <g clip-path="url(#clip0_100_2400)">
    <path
      d="M35.1949 0.68457H2.80514C2.06117 0.68457 1.34767 0.980111 0.821607 1.50618C0.295541 2.03224 0 2.74574 0 3.48971V35.8794C0 36.6234 0.295541 37.3369 0.821607 37.863C1.34767 38.389 2.06117 38.6846 2.80514 38.6846H35.1949C35.9388 38.6846 36.6523 38.389 37.1784 37.863C37.7045 37.3369 38 36.6234 38 35.8794V3.48971C38 2.74574 37.7045 2.03224 37.1784 1.50618C36.6523 0.980111 35.9388 0.68457 35.1949 0.68457ZM11.3261 33.0558H5.61292V14.9082H11.3261V33.0558ZM8.46556 12.3933C7.81749 12.3897 7.18503 12.1941 6.648 11.8314C6.11096 11.4686 5.69341 10.9549 5.44806 10.3551C5.2027 9.75525 5.14053 9.09617 5.26938 8.46104C5.39824 7.82591 5.71235 7.24318 6.17208 6.78639C6.63181 6.32961 7.21654 6.01924 7.85249 5.89447C8.48844 5.76969 9.1471 5.83609 9.74534 6.0853C10.3436 6.3345 10.8546 6.75533 11.2139 7.29469C11.5732 7.83404 11.7647 8.46775 11.7642 9.11582C11.7703 9.54971 11.689 9.98038 11.5251 10.3822C11.3612 10.784 11.1181 11.1487 10.8103 11.4545C10.5025 11.7604 10.1363 12.0011 9.73342 12.1624C9.33058 12.3237 8.89939 12.4022 8.46556 12.3933ZM32.3844 33.0717H26.6739V23.1574C26.6739 20.2335 25.431 19.331 23.8265 19.331C22.1324 19.331 20.4699 20.6082 20.4699 23.2312V33.0717H14.7567V14.9214H20.2508V17.4362H20.3247C20.8763 16.32 22.8079 14.4121 25.7556 14.4121C28.9433 14.4121 32.3871 16.3042 32.3871 21.8458L32.3844 33.0717Z"
      fill="#0A66C2" />
  </g>
  <defs>
    <clipPath id="clip0_100_2400">
      <rect y="0.68457" width="38" height="38" rx="6" fill="white" />
    </clipPath>
  </defs>
</svg>