<svg width="39" height="39" viewBox="0 0 39 39" fill="none" xmlns="http://www.w3.org/2000/svg">
  <g clip-path="url(#clip0_185_217)">
    <path
      d="M35.5719 0.905518H3.19023C1.63906 0.905518 0.384766 2.13013 0.384766 3.64419V36.1594C0.384766 37.6735 1.63906 38.9055 3.19023 38.9055H35.5719C37.1231 38.9055 38.3848 37.6735 38.3848 36.1668V3.64419C38.3848 2.13013 37.1231 0.905518 35.5719 0.905518ZM11.6586 33.2872H6.01797V15.1481H11.6586V33.2872ZM8.83828 12.6766C7.02734 12.6766 5.56523 11.2145 5.56523 9.41099C5.56523 7.60747 7.02734 6.14536 8.83828 6.14536C10.6418 6.14536 12.1039 7.60747 12.1039 9.41099C12.1039 11.2071 10.6418 12.6766 8.83828 12.6766ZM32.7664 33.2872H27.1332V24.47C27.1332 22.3696 27.0961 19.6606 24.2016 19.6606C21.2699 19.6606 20.8246 21.954 20.8246 24.3215V33.2872H15.1988V15.1481H20.602V17.627H20.6762C21.4258 16.202 23.2664 14.6954 26.0051 14.6954C31.7125 14.6954 32.7664 18.4508 32.7664 23.3344V33.2872Z"
      fill="white" />
  </g>
  <defs>
    <clipPath id="clip0_185_217">
      <rect x="0.384766" y="0.905518" width="38" height="38" rx="6" fill="white" />
    </clipPath>
  </defs>
</svg>