<svg width="21" height="21" viewBox="0 0 21 21" fill="none" xmlns="http://www.w3.org/2000/svg">
<path d="M19.5065 8.16646L17.6165 7.53646L18.5065 5.75646C18.5967 5.57014 18.6269 5.36042 18.5929 5.15623C18.5589 4.95204 18.4623 4.76344 18.3165 4.61646L16.1865 2.48646C16.0388 2.33854 15.8484 2.24067 15.6421 2.20658C15.4358 2.1725 15.224 2.20393 15.0365 2.29646L13.2565 3.18646L12.6265 1.29646C12.56 1.09945 12.4337 0.928084 12.2652 0.806206C12.0967 0.684329 11.8945 0.618003 11.6865 0.616458H8.68653C8.47688 0.615917 8.27237 0.681277 8.1019 0.8033C7.93142 0.925323 7.80361 1.09784 7.73653 1.29646L7.10653 3.18646L5.32653 2.29646C5.14021 2.20624 4.93049 2.17606 4.7263 2.21009C4.52211 2.24413 4.33351 2.34069 4.18653 2.48646L2.05653 4.61646C1.90861 4.76422 1.81073 4.95463 1.77665 5.16091C1.74257 5.36719 1.774 5.57897 1.86653 5.76646L2.75653 7.54646L0.866527 8.17646C0.669519 8.24299 0.498152 8.36929 0.376275 8.53777C0.254397 8.70624 0.188071 8.90852 0.186527 9.11646V12.1165C0.185986 12.3261 0.251346 12.5306 0.373369 12.7011C0.495392 12.8716 0.667906 12.9994 0.866527 13.0665L2.75653 13.6965L1.86653 15.4765C1.77631 15.6628 1.74613 15.8725 1.78016 16.0767C1.81419 16.2809 1.91076 16.4695 2.05653 16.6165L4.18653 18.7465C4.33429 18.8944 4.5247 18.9923 4.73098 19.0263C4.93726 19.0604 5.14904 19.029 5.33653 18.9365L7.11653 18.0465L7.74653 19.9365C7.81361 20.1351 7.94142 20.3076 8.1119 20.4296C8.28237 20.5516 8.48688 20.617 8.69653 20.6165H11.6965C11.9062 20.617 12.1107 20.5516 12.2812 20.4296C12.4516 20.3076 12.5794 20.1351 12.6465 19.9365L13.2765 18.0465L15.0565 18.9365C15.2417 19.0244 15.4493 19.0533 15.6514 19.0194C15.8536 18.9854 16.0403 18.8901 16.1865 18.7465L18.3165 16.6165C18.4644 16.4687 18.5623 16.2783 18.5964 16.072C18.6305 15.8657 18.5991 15.6539 18.5065 15.4665L17.6165 13.6865L19.5065 13.0565C19.7035 12.9899 19.8749 12.8636 19.9968 12.6952C20.1187 12.5267 20.185 12.3244 20.1865 12.1165V9.11646C20.1871 8.90681 20.1217 8.7023 19.9997 8.53183C19.8777 8.36136 19.7051 8.23354 19.5065 8.16646ZM18.1865 11.3965L16.9865 11.7965C16.7106 11.886 16.4574 12.0344 16.2446 12.2316C16.0318 12.4287 15.8643 12.6698 15.754 12.938C15.6436 13.2063 15.593 13.4954 15.6055 13.7852C15.618 14.0751 15.6934 14.3587 15.8265 14.6165L16.3965 15.7565L15.2965 16.8565L14.1865 16.2565C13.9301 16.1287 13.6492 16.0575 13.3628 16.0478C13.0765 16.038 12.7914 16.0899 12.5268 16.1999C12.2623 16.3098 12.0245 16.4754 11.8294 16.6853C11.6344 16.8952 11.4868 17.1445 11.3965 17.4165L10.9965 18.6165H9.40653L9.00653 17.4165C8.91702 17.1405 8.76855 16.8873 8.57143 16.6745C8.3743 16.4617 8.13323 16.2943 7.86495 16.1839C7.59666 16.0736 7.30758 16.0229 7.01775 16.0354C6.72792 16.0479 6.44429 16.1234 6.18653 16.2565L5.04653 16.8265L3.94653 15.7265L4.54653 14.6165C4.67962 14.3587 4.75505 14.0751 4.76757 13.7852C4.7801 13.4954 4.72942 13.2063 4.61907 12.938C4.50871 12.6698 4.3413 12.4287 4.12847 12.2316C3.91564 12.0344 3.66247 11.886 3.38653 11.7965L2.18653 11.3965V9.83646L3.38653 9.43646C3.66247 9.34695 3.91564 9.19848 4.12847 9.00136C4.3413 8.80423 4.50871 8.56316 4.61907 8.29488C4.72942 8.02659 4.7801 7.73751 4.76757 7.44768C4.75505 7.15786 4.67962 6.87422 4.54653 6.61646L3.97653 5.50646L5.07653 4.40646L6.18653 4.97646C6.44429 5.10955 6.72792 5.18498 7.01775 5.1975C7.30758 5.21003 7.59666 5.15936 7.86495 5.049C8.13323 4.93864 8.3743 4.77124 8.57143 4.5584C8.76855 4.34557 8.91702 4.0924 9.00653 3.81646L9.40653 2.61646H10.9665L11.3665 3.81646C11.456 4.0924 11.6045 4.34557 11.8016 4.5584C11.9988 4.77124 12.2398 4.93864 12.5081 5.049C12.7764 5.15936 13.0655 5.21003 13.3553 5.1975C13.6451 5.18498 13.9288 5.10955 14.1865 4.97646L15.3265 4.40646L16.4265 5.50646L15.8265 6.61646C15.6988 6.8729 15.6276 7.1538 15.6178 7.44015C15.6081 7.72649 15.6599 8.01159 15.7699 8.27614C15.8799 8.54069 16.0455 8.77853 16.2554 8.97354C16.4653 9.16855 16.7146 9.31619 16.9865 9.40646L18.1865 9.80646V11.3965ZM10.1865 6.61646C9.3954 6.61646 8.62204 6.85105 7.96425 7.29058C7.30645 7.73011 6.79376 8.35482 6.49101 9.08572C6.18826 9.81663 6.10904 10.6209 6.26339 11.3968C6.41773 12.1727 6.79869 12.8855 7.3581 13.4449C7.91751 14.0043 8.63024 14.3853 9.40617 14.5396C10.1821 14.6939 10.9864 14.6147 11.7173 14.312C12.4482 14.0092 13.0729 13.4965 13.5124 12.8387C13.9519 12.1809 14.1865 11.4076 14.1865 10.6165C14.1865 9.55559 13.7651 8.53818 13.015 7.78803C12.2648 7.03789 11.2474 6.61646 10.1865 6.61646ZM10.1865 12.6165C9.79096 12.6165 9.40428 12.4992 9.07539 12.2794C8.74649 12.0596 8.49014 11.7473 8.33877 11.3818C8.18739 11.0164 8.14779 10.6142 8.22496 10.2263C8.30213 9.83832 8.49261 9.48195 8.77231 9.20224C9.05202 8.92254 9.40838 8.73206 9.79635 8.65489C10.1843 8.57772 10.5864 8.61732 10.9519 8.7687C11.3173 8.92007 11.6297 9.17642 11.8495 9.50532C12.0692 9.83422 12.1865 10.2209 12.1865 10.6165C12.1865 11.1469 11.9758 11.6556 11.6007 12.0307C11.2257 12.4057 10.717 12.6165 10.1865 12.6165Z" fill="white"/>
</svg>
