<svg width="26" height="26" viewBox="0 0 26 26" fill="none" xmlns="http://www.w3.org/2000/svg">
<path d="M23.243 8.10514C23.2438 7.96805 23.2175 7.83215 23.1657 7.70524C23.1139 7.57832 23.0375 7.46289 22.9409 7.36556L18.5243 2.94889C18.4269 2.85235 18.3115 2.77597 18.1846 2.72413C18.0577 2.67229 17.9218 2.64601 17.7847 2.64681C17.6476 2.64601 17.5117 2.67229 17.3848 2.72413C17.2579 2.77597 17.1424 2.85235 17.0451 2.94889L14.0972 5.89681L2.71177 17.2822C2.61523 17.3796 2.53885 17.495 2.48701 17.6219C2.43517 17.7488 2.40889 17.8847 2.40969 18.0218V22.4385C2.40969 22.7147 2.51943 22.9797 2.71478 23.175C2.91013 23.3704 3.17508 23.4801 3.45135 23.4801H7.86802C8.01378 23.4881 8.15957 23.4653 8.29596 23.4132C8.43234 23.3612 8.55626 23.2811 8.65969 23.1781L19.9826 11.7926L22.9409 8.89681C23.036 8.79585 23.1135 8.67965 23.1701 8.55306C23.1801 8.47003 23.1801 8.38609 23.1701 8.30306C23.175 8.25457 23.175 8.20571 23.1701 8.15722L23.243 8.10514ZM7.44094 21.3968H4.49302V18.4489L14.8368 8.10514L17.7847 11.0531L7.44094 21.3968ZM19.2534 9.58431L16.3055 6.63639L17.7847 5.16764L20.7222 8.10514L19.2534 9.58431Z" fill="#081342"/>
</svg>
