<svg width="22" height="22" viewBox="0 0 22 22" fill="none" xmlns="http://www.w3.org/2000/svg">
<path d="M19.731 8.48177L16.231 4.98177C16.1494 4.90019 16.0526 4.83547 15.946 4.79132C15.8394 4.74717 15.7251 4.72444 15.6097 4.72444C15.3767 4.72444 15.1533 4.81701 14.9885 4.98177C14.8237 5.14654 14.7312 5.37001 14.7312 5.60302C14.7312 5.83604 14.8237 6.05951 14.9885 6.22427L17.001 8.22802H6.85974C6.62768 8.22802 6.40512 8.32021 6.24102 8.4843C6.07693 8.6484 5.98474 8.87096 5.98474 9.10302C5.98474 9.33509 6.07693 9.55765 6.24102 9.72174C6.40512 9.88583 6.62768 9.97802 6.85974 9.97802H19.1097C19.2825 9.97716 19.4511 9.92518 19.5944 9.82864C19.7376 9.7321 19.8491 9.59531 19.9147 9.43552C19.9817 9.27618 20.0001 9.10055 19.9674 8.93081C19.9347 8.76107 19.8524 8.60482 19.731 8.48177ZM15.6097 11.728H3.35974C3.18699 11.7289 3.01837 11.7809 2.87511 11.8774C2.73186 11.9739 2.62038 12.1107 2.55474 12.2705C2.48773 12.4299 2.46943 12.6055 2.50213 12.7752C2.53483 12.945 2.61708 13.1012 2.73849 13.2243L6.23849 16.7243C6.31983 16.8063 6.41661 16.8714 6.52324 16.9158C6.62986 16.9602 6.74423 16.9831 6.85974 16.9831C6.97525 16.9831 7.08962 16.9602 7.19625 16.9158C7.30287 16.8714 7.39965 16.8063 7.48099 16.7243C7.563 16.6429 7.6281 16.5462 7.67252 16.4395C7.71694 16.3329 7.73981 16.2185 7.73981 16.103C7.73981 15.9875 7.71694 15.8731 7.67252 15.7665C7.6281 15.6599 7.563 15.5631 7.48099 15.4818L5.46849 13.478H15.6097C15.8418 13.478 16.0644 13.3858 16.2285 13.2217C16.3926 13.0576 16.4847 12.8351 16.4847 12.603C16.4847 12.371 16.3926 12.1484 16.2285 11.9843C16.0644 11.8202 15.8418 11.728 15.6097 11.728Z" fill="#081342"/>
</svg>
